<mxfile host="Electron" modified="2024-04-08T18:11:31.353Z" agent="Mozilla/5.0 (Windows NT 10.0; Win64; x64) AppleWebKit/537.36 (KHTML, like Gecko) draw.io/24.1.0 Chrome/120.0.6099.109 Electron/28.1.0 Safari/537.36" etag="d03AfYbPLV6yHcIFm67-" version="24.1.0" type="device">
  <diagram name="PÃ¡gina-1" id="4jompLXyHlbltbfololE">
    <mxGraphModel dx="1420" dy="830" grid="1" gridSize="10" guides="1" tooltips="1" connect="1" arrows="1" fold="1" page="1" pageScale="1" pageWidth="827" pageHeight="1169" background="#CCE5FF" math="0" shadow="0">
      <root>
        <mxCell id="0" />
        <mxCell id="1" parent="0" />
        <mxCell id="IOJUOM2YyDwcFtG7GnWh-1" value="&lt;font style=&quot;font-size: 16px;&quot; color=&quot;#000000&quot; face=&quot;Comic Sans MS&quot;&gt;&lt;b&gt;25 Hacer un programa que permita ingresar el legajo y sueldo de 10 empleados y determine:&lt;br&gt;El legajo del empleado con mayor sueldo&lt;/b&gt;&lt;/font&gt;" style="text;whiteSpace=wrap;html=1;fontFamily=Architects Daughter;fontSource=https%3A%2F%2Ffonts.googleapis.com%2Fcss%3Ffamily%3DArchitects%2BDaughter;" vertex="1" parent="1">
          <mxGeometry x="50" y="10" width="660" height="80" as="geometry" />
        </mxCell>
        <mxCell id="IOJUOM2YyDwcFtG7GnWh-89" value="" style="group;aspect=fixed;" vertex="1" connectable="0" parent="1">
          <mxGeometry x="3" y="130" width="627" height="980" as="geometry" />
        </mxCell>
        <mxCell id="IOJUOM2YyDwcFtG7GnWh-6" value="" style="group;aspect=fixed;" vertex="1" connectable="0" parent="IOJUOM2YyDwcFtG7GnWh-89">
          <mxGeometry x="337" width="50" height="50" as="geometry" />
        </mxCell>
        <mxCell id="IOJUOM2YyDwcFtG7GnWh-2" value="" style="strokeWidth=2;html=1;shape=mxgraph.flowchart.start_2;whiteSpace=wrap;rounded=0;labelBackgroundColor=none;strokeColor=#000000;align=center;verticalAlign=middle;fontFamily=Helvetica;fontSize=12;fontColor=default;fillColor=#d5e8d4;" vertex="1" parent="IOJUOM2YyDwcFtG7GnWh-6">
          <mxGeometry width="50" height="50" as="geometry" />
        </mxCell>
        <mxCell id="IOJUOM2YyDwcFtG7GnWh-4" value="&lt;b&gt;&lt;font style=&quot;font-size: 20px;&quot; color=&quot;#000000&quot; face=&quot;Comic Sans MS&quot;&gt;I&lt;/font&gt;&lt;/b&gt;" style="text;strokeColor=none;align=center;fillColor=none;html=1;verticalAlign=middle;whiteSpace=wrap;rounded=0;fontFamily=Architects Daughter;fontSource=https%3A%2F%2Ffonts.googleapis.com%2Fcss%3Ffamily%3DArchitects%2BDaughter;" vertex="1" parent="IOJUOM2YyDwcFtG7GnWh-6">
          <mxGeometry x="5" y="10" width="40" height="30" as="geometry" />
        </mxCell>
        <mxCell id="IOJUOM2YyDwcFtG7GnWh-7" value="" style="group;aspect=fixed;" vertex="1" connectable="0" parent="IOJUOM2YyDwcFtG7GnWh-89">
          <mxGeometry x="337" y="930" width="50" height="50" as="geometry" />
        </mxCell>
        <mxCell id="IOJUOM2YyDwcFtG7GnWh-3" value="" style="strokeWidth=2;html=1;shape=mxgraph.flowchart.start_2;whiteSpace=wrap;rounded=0;labelBackgroundColor=none;strokeColor=#000000;align=center;verticalAlign=middle;fontFamily=Helvetica;fontSize=12;fontColor=default;fillColor=#d5e8d4;" vertex="1" parent="IOJUOM2YyDwcFtG7GnWh-7">
          <mxGeometry width="50" height="50" as="geometry" />
        </mxCell>
        <mxCell id="IOJUOM2YyDwcFtG7GnWh-5" value="&lt;b&gt;&lt;font style=&quot;font-size: 20px;&quot; color=&quot;#000000&quot; face=&quot;Comic Sans MS&quot;&gt;F&lt;/font&gt;&lt;/b&gt;" style="text;strokeColor=none;align=center;fillColor=none;html=1;verticalAlign=middle;whiteSpace=wrap;rounded=0;fontFamily=Architects Daughter;fontSource=https://fonts.googleapis.com/css?family=Architects+Daughter;" vertex="1" parent="IOJUOM2YyDwcFtG7GnWh-7">
          <mxGeometry x="5" y="10" width="40" height="30" as="geometry" />
        </mxCell>
        <mxCell id="IOJUOM2YyDwcFtG7GnWh-14" value="" style="group;aspect=fixed;" vertex="1" connectable="0" parent="IOJUOM2YyDwcFtG7GnWh-89">
          <mxGeometry x="287" y="90" width="150" height="40" as="geometry" />
        </mxCell>
        <mxCell id="IOJUOM2YyDwcFtG7GnWh-8" value="" style="shape=trapezoid;perimeter=trapezoidPerimeter;whiteSpace=wrap;html=1;fixedSize=1;rounded=0;labelBackgroundColor=none;strokeColor=#121211;strokeWidth=2;align=center;verticalAlign=middle;fontFamily=Helvetica;fontSize=12;fontColor=default;fillColor=#d5e8d4;direction=west;container=0;" vertex="1" parent="IOJUOM2YyDwcFtG7GnWh-14">
          <mxGeometry width="150" height="40" as="geometry">
            <mxRectangle x="-1020" y="-650" width="50" height="40" as="alternateBounds" />
          </mxGeometry>
        </mxCell>
        <mxCell id="IOJUOM2YyDwcFtG7GnWh-11" value="&lt;b&gt;&lt;font style=&quot;font-size: 16px;&quot; color=&quot;#000000&quot; face=&quot;Comic Sans MS&quot;&gt;sueldo_mayor&lt;/font&gt;&lt;/b&gt;" style="text;strokeColor=none;align=center;fillColor=none;html=1;verticalAlign=middle;whiteSpace=wrap;rounded=0;fontFamily=Architects Daughter;fontSource=https%3A%2F%2Ffonts.googleapis.com%2Fcss%3Ffamily%3DArchitects%2BDaughter;container=0;" vertex="1" parent="IOJUOM2YyDwcFtG7GnWh-14">
          <mxGeometry x="14" width="130" height="40" as="geometry" />
        </mxCell>
        <mxCell id="IOJUOM2YyDwcFtG7GnWh-16" value="" style="group;aspect=fixed;" vertex="1" connectable="0" parent="IOJUOM2YyDwcFtG7GnWh-89">
          <mxGeometry x="287" y="170" width="150" height="40" as="geometry" />
        </mxCell>
        <mxCell id="IOJUOM2YyDwcFtG7GnWh-13" value="" style="shape=trapezoid;perimeter=trapezoidPerimeter;whiteSpace=wrap;html=1;fixedSize=1;rounded=0;labelBackgroundColor=none;strokeColor=#121211;strokeWidth=2;align=center;verticalAlign=middle;fontFamily=Helvetica;fontSize=12;fontColor=default;fillColor=#d5e8d4;direction=west;container=0;" vertex="1" parent="IOJUOM2YyDwcFtG7GnWh-16">
          <mxGeometry width="150" height="40" as="geometry">
            <mxRectangle x="-1020" y="-650" width="50" height="40" as="alternateBounds" />
          </mxGeometry>
        </mxCell>
        <mxCell id="IOJUOM2YyDwcFtG7GnWh-15" value="&lt;b&gt;&lt;font style=&quot;font-size: 16px;&quot; color=&quot;#000000&quot; face=&quot;Comic Sans MS&quot;&gt;legajo_mayor&lt;/font&gt;&lt;/b&gt;" style="text;strokeColor=none;align=center;fillColor=none;html=1;verticalAlign=middle;whiteSpace=wrap;rounded=0;fontFamily=Architects Daughter;fontSource=https://fonts.googleapis.com/css?family=Architects+Daughter;container=0;" vertex="1" parent="IOJUOM2YyDwcFtG7GnWh-16">
          <mxGeometry x="10" width="130" height="40" as="geometry" />
        </mxCell>
        <mxCell id="IOJUOM2YyDwcFtG7GnWh-32" value="" style="whiteSpace=wrap;html=1;rounded=0;labelBackgroundColor=none;strokeColor=#000000;strokeWidth=2;align=center;verticalAlign=middle;fontFamily=Helvetica;fontSize=12;fontColor=default;fillColor=#d5e8d4;" vertex="1" parent="IOJUOM2YyDwcFtG7GnWh-89">
          <mxGeometry x="97" y="250" width="530" height="560" as="geometry" />
        </mxCell>
        <mxCell id="IOJUOM2YyDwcFtG7GnWh-40" value="" style="group;aspect=fixed;" vertex="1" connectable="0" parent="IOJUOM2YyDwcFtG7GnWh-89">
          <mxGeometry x="347" y="300" width="150" height="40" as="geometry" />
        </mxCell>
        <mxCell id="IOJUOM2YyDwcFtG7GnWh-41" value="" style="shape=trapezoid;perimeter=trapezoidPerimeter;whiteSpace=wrap;html=1;fixedSize=1;rounded=0;labelBackgroundColor=none;strokeColor=#121211;strokeWidth=2;align=center;verticalAlign=middle;fontFamily=Helvetica;fontSize=12;fontColor=default;fillColor=#d5e8d4;direction=west;container=0;" vertex="1" parent="IOJUOM2YyDwcFtG7GnWh-40">
          <mxGeometry width="150" height="40" as="geometry">
            <mxRectangle x="-1020" y="-650" width="50" height="40" as="alternateBounds" />
          </mxGeometry>
        </mxCell>
        <mxCell id="IOJUOM2YyDwcFtG7GnWh-42" value="&lt;b&gt;&lt;font style=&quot;font-size: 16px;&quot; color=&quot;#000000&quot; face=&quot;Comic Sans MS&quot;&gt;legajo&lt;/font&gt;&lt;/b&gt;" style="text;strokeColor=none;align=center;fillColor=none;html=1;verticalAlign=middle;whiteSpace=wrap;rounded=0;fontFamily=Architects Daughter;fontSource=https://fonts.googleapis.com/css?family=Architects+Daughter;container=0;" vertex="1" parent="IOJUOM2YyDwcFtG7GnWh-40">
          <mxGeometry x="10" width="130" height="40" as="geometry" />
        </mxCell>
        <mxCell id="IOJUOM2YyDwcFtG7GnWh-44" value="" style="group;aspect=fixed;" vertex="1" connectable="0" parent="IOJUOM2YyDwcFtG7GnWh-89">
          <mxGeometry x="347" y="370" width="150" height="40" as="geometry" />
        </mxCell>
        <mxCell id="IOJUOM2YyDwcFtG7GnWh-45" value="" style="shape=trapezoid;perimeter=trapezoidPerimeter;whiteSpace=wrap;html=1;fixedSize=1;rounded=0;labelBackgroundColor=none;strokeColor=#121211;strokeWidth=2;align=center;verticalAlign=middle;fontFamily=Helvetica;fontSize=12;fontColor=default;fillColor=#d5e8d4;direction=west;container=0;" vertex="1" parent="IOJUOM2YyDwcFtG7GnWh-44">
          <mxGeometry width="150" height="40" as="geometry">
            <mxRectangle x="-1020" y="-650" width="50" height="40" as="alternateBounds" />
          </mxGeometry>
        </mxCell>
        <mxCell id="IOJUOM2YyDwcFtG7GnWh-46" value="&lt;b&gt;&lt;font style=&quot;font-size: 16px;&quot; color=&quot;#000000&quot; face=&quot;Comic Sans MS&quot;&gt;sueldo&lt;/font&gt;&lt;/b&gt;" style="text;strokeColor=none;align=center;fillColor=none;html=1;verticalAlign=middle;whiteSpace=wrap;rounded=0;fontFamily=Architects Daughter;fontSource=https://fonts.googleapis.com/css?family=Architects+Daughter;container=0;" vertex="1" parent="IOJUOM2YyDwcFtG7GnWh-44">
          <mxGeometry x="10" width="130" height="40" as="geometry" />
        </mxCell>
        <mxCell id="IOJUOM2YyDwcFtG7GnWh-47" value="" style="group;aspect=fixed;" vertex="1" connectable="0" parent="IOJUOM2YyDwcFtG7GnWh-89">
          <mxGeometry x="362" y="455" width="120" height="130" as="geometry" />
        </mxCell>
        <mxCell id="IOJUOM2YyDwcFtG7GnWh-48" value="" style="rhombus;whiteSpace=wrap;html=1;rounded=0;labelBackgroundColor=none;strokeColor=#0F140C;strokeWidth=2;align=center;verticalAlign=middle;fontFamily=Helvetica;fontSize=12;fontColor=default;fillColor=#d5e8d4;" vertex="1" parent="IOJUOM2YyDwcFtG7GnWh-47">
          <mxGeometry width="120" height="130" as="geometry" />
        </mxCell>
        <mxCell id="IOJUOM2YyDwcFtG7GnWh-49" value="&lt;b&gt;&lt;font style=&quot;font-size: 14px;&quot; color=&quot;#000000&quot; face=&quot;Comic Sans MS&quot;&gt;sueldo&lt;/font&gt;&lt;/b&gt;&lt;div&gt;&lt;b&gt;&lt;font style=&quot;font-size: 14px;&quot; color=&quot;#000000&quot; face=&quot;Comic Sans MS&quot;&gt;&amp;gt;&lt;/font&gt;&lt;/b&gt;&lt;/div&gt;&lt;div&gt;&lt;b&gt;&lt;font style=&quot;font-size: 14px;&quot; color=&quot;#000000&quot; face=&quot;Comic Sans MS&quot;&gt;sueldo_mayor&lt;/font&gt;&lt;/b&gt;&lt;/div&gt;" style="text;strokeColor=none;align=center;fillColor=none;html=1;verticalAlign=middle;whiteSpace=wrap;rounded=0;fontFamily=Architects Daughter;fontSource=https://fonts.googleapis.com/css?family=Architects+Daughter;" vertex="1" parent="IOJUOM2YyDwcFtG7GnWh-47">
          <mxGeometry x="10" y="23" width="100" height="70" as="geometry" />
        </mxCell>
        <mxCell id="IOJUOM2YyDwcFtG7GnWh-51" value="" style="group;aspect=fixed;" vertex="1" connectable="0" parent="IOJUOM2YyDwcFtG7GnWh-89">
          <mxGeometry x="221" y="610" width="190" height="60" as="geometry" />
        </mxCell>
        <mxCell id="IOJUOM2YyDwcFtG7GnWh-52" value="" style="rounded=0;whiteSpace=wrap;html=1;labelBackgroundColor=none;strokeColor=#0f100e;strokeWidth=2;align=center;verticalAlign=middle;fontFamily=Helvetica;fontSize=12;fontColor=default;fillColor=#d5e8d4;aspect=fixed;" vertex="1" parent="IOJUOM2YyDwcFtG7GnWh-51">
          <mxGeometry width="190" height="60" as="geometry" />
        </mxCell>
        <mxCell id="IOJUOM2YyDwcFtG7GnWh-53" value="&lt;font face=&quot;Comic Sans MS&quot; color=&quot;#000000&quot;&gt;&lt;span style=&quot;font-size: 14px;&quot;&gt;&lt;b&gt;sueldo_mayor = sueldo&lt;/b&gt;&lt;/span&gt;&lt;/font&gt;&lt;div&gt;&lt;font face=&quot;Comic Sans MS&quot; color=&quot;#000000&quot;&gt;&lt;span style=&quot;font-size: 14px;&quot;&gt;&lt;b&gt;legajo_mayor = legajo&lt;/b&gt;&lt;/span&gt;&lt;/font&gt;&lt;/div&gt;" style="text;strokeColor=none;align=center;fillColor=none;html=1;verticalAlign=middle;whiteSpace=wrap;rounded=0;fontFamily=Architects Daughter;fontSource=https://fonts.googleapis.com/css?family=Architects+Daughter;aspect=fixed;" vertex="1" parent="IOJUOM2YyDwcFtG7GnWh-51">
          <mxGeometry x="10" y="5" width="170" height="50" as="geometry" />
        </mxCell>
        <mxCell id="IOJUOM2YyDwcFtG7GnWh-59" value="" style="group;aspect=fixed;" vertex="1" connectable="0" parent="IOJUOM2YyDwcFtG7GnWh-89">
          <mxGeometry y="270" width="186" height="180" as="geometry" />
        </mxCell>
        <mxCell id="IOJUOM2YyDwcFtG7GnWh-34" value="" style="ellipse;whiteSpace=wrap;html=1;aspect=fixed;rounded=0;labelBackgroundColor=none;strokeColor=#0F140C;strokeWidth=3;align=center;verticalAlign=middle;fontFamily=Helvetica;fontSize=12;fontColor=default;fillColor=#d5e8d4;container=0;" vertex="1" parent="IOJUOM2YyDwcFtG7GnWh-59">
          <mxGeometry x="4" width="180" height="180" as="geometry" />
        </mxCell>
        <mxCell id="IOJUOM2YyDwcFtG7GnWh-35" value="" style="endArrow=none;html=1;rounded=0;strokeColor=#0F140C;fontFamily=Helvetica;fontSize=12;fontColor=default;fillColor=#B2C9AB;strokeWidth=2;" edge="1" parent="IOJUOM2YyDwcFtG7GnWh-59">
          <mxGeometry width="50" height="50" relative="1" as="geometry">
            <mxPoint x="176.79999999999998" y="50.39999999999998" as="sourcePoint" />
            <mxPoint x="11.199999999999989" y="50.39999999999998" as="targetPoint" />
          </mxGeometry>
        </mxCell>
        <mxCell id="IOJUOM2YyDwcFtG7GnWh-36" value="" style="endArrow=none;html=1;rounded=0;strokeColor=#0F140C;fontFamily=Helvetica;fontSize=12;fontColor=default;fillColor=#B2C9AB;exitX=0.264;exitY=0.952;exitDx=0;exitDy=0;exitPerimeter=0;strokeWidth=2;" edge="1" parent="IOJUOM2YyDwcFtG7GnWh-59" source="IOJUOM2YyDwcFtG7GnWh-34">
          <mxGeometry width="50" height="50" relative="1" as="geometry">
            <mxPoint x="47.19999999999999" y="108" as="sourcePoint" />
            <mxPoint x="54.39999999999998" y="50.39999999999998" as="targetPoint" />
          </mxGeometry>
        </mxCell>
        <mxCell id="IOJUOM2YyDwcFtG7GnWh-37" value="" style="endArrow=none;html=1;rounded=0;strokeColor=#0F140C;fontFamily=Helvetica;fontSize=12;fontColor=default;fillColor=#B2C9AB;exitX=0.728;exitY=0.948;exitDx=0;exitDy=0;exitPerimeter=0;strokeWidth=2;" edge="1" parent="IOJUOM2YyDwcFtG7GnWh-59" source="IOJUOM2YyDwcFtG7GnWh-34">
          <mxGeometry width="50" height="50" relative="1" as="geometry">
            <mxPoint x="112" y="122.39999999999998" as="sourcePoint" />
            <mxPoint x="135.04000000000002" y="50.39999999999998" as="targetPoint" />
          </mxGeometry>
        </mxCell>
        <mxCell id="IOJUOM2YyDwcFtG7GnWh-54" value="&lt;font color=&quot;#000000&quot; size=&quot;1&quot; face=&quot;Comic Sans MS&quot;&gt;&lt;b style=&quot;font-size: 20px;&quot;&gt;x&lt;/b&gt;&lt;/font&gt;" style="text;strokeColor=none;align=center;fillColor=none;html=1;verticalAlign=middle;whiteSpace=wrap;rounded=0;fontFamily=Architects Daughter;fontSource=https%3A%2F%2Ffonts.googleapis.com%2Fcss%3Ffamily%3DArchitects%2BDaughter;container=0;" vertex="1" parent="IOJUOM2YyDwcFtG7GnWh-59">
          <mxGeometry x="64" y="10" width="60" height="30" as="geometry" />
        </mxCell>
        <mxCell id="IOJUOM2YyDwcFtG7GnWh-57" value="&lt;font color=&quot;#000000&quot; size=&quot;1&quot; face=&quot;Comic Sans MS&quot;&gt;&lt;b style=&quot;font-size: 14px;&quot;&gt;x &amp;lt; 9&lt;/b&gt;&lt;/font&gt;" style="text;strokeColor=none;align=center;fillColor=none;html=1;verticalAlign=middle;whiteSpace=wrap;rounded=0;fontFamily=Architects Daughter;fontSource=https://fonts.googleapis.com/css?family=Architects+Daughter;container=0;" vertex="1" parent="IOJUOM2YyDwcFtG7GnWh-59">
          <mxGeometry x="64" y="84" width="60" height="30" as="geometry" />
        </mxCell>
        <mxCell id="IOJUOM2YyDwcFtG7GnWh-56" value="&lt;font color=&quot;#000000&quot; size=&quot;1&quot; face=&quot;Comic Sans MS&quot;&gt;&lt;b style=&quot;font-size: 14px;&quot;&gt;x = 0&lt;/b&gt;&lt;/font&gt;" style="text;strokeColor=none;align=center;fillColor=none;html=1;verticalAlign=middle;whiteSpace=wrap;rounded=0;fontFamily=Architects Daughter;fontSource=https://fonts.googleapis.com/css?family=Architects+Daughter;container=0;" vertex="1" parent="IOJUOM2YyDwcFtG7GnWh-59">
          <mxGeometry y="84" width="60" height="30" as="geometry" />
        </mxCell>
        <mxCell id="IOJUOM2YyDwcFtG7GnWh-58" value="&lt;font color=&quot;#000000&quot; size=&quot;1&quot; face=&quot;Comic Sans MS&quot;&gt;&lt;b style=&quot;font-size: 14px;&quot;&gt;x++&lt;/b&gt;&lt;/font&gt;" style="text;strokeColor=none;align=center;fillColor=none;html=1;verticalAlign=middle;whiteSpace=wrap;rounded=0;fontFamily=Architects Daughter;fontSource=https://fonts.googleapis.com/css?family=Architects+Daughter;container=0;" vertex="1" parent="IOJUOM2YyDwcFtG7GnWh-59">
          <mxGeometry x="126" y="84" width="60" height="30" as="geometry" />
        </mxCell>
        <mxCell id="IOJUOM2YyDwcFtG7GnWh-62" value="" style="group;aspect=fixed;" vertex="1" connectable="0" parent="IOJUOM2YyDwcFtG7GnWh-89">
          <mxGeometry x="242" y="850" width="240" height="40" as="geometry" />
        </mxCell>
        <mxCell id="IOJUOM2YyDwcFtG7GnWh-60" value="" style="shape=trapezoid;perimeter=trapezoidPerimeter;whiteSpace=wrap;html=1;fixedSize=1;rounded=0;labelBackgroundColor=none;strokeColor=#0F140C;strokeWidth=2;align=center;verticalAlign=middle;fontFamily=Helvetica;fontSize=12;fontColor=default;fillColor=#d5e8d4;" vertex="1" parent="IOJUOM2YyDwcFtG7GnWh-62">
          <mxGeometry width="240" height="40" as="geometry" />
        </mxCell>
        <mxCell id="IOJUOM2YyDwcFtG7GnWh-61" value="&lt;b&gt;&lt;font color=&quot;#000000&quot; style=&quot;font-size: 15px;&quot; face=&quot;Comic Sans MS&quot;&gt;sueldo_mayor, legajo_mayor&lt;/font&gt;&lt;/b&gt;" style="text;strokeColor=none;align=center;fillColor=none;html=1;verticalAlign=middle;whiteSpace=wrap;rounded=0;fontFamily=Architects Daughter;fontSource=https%3A%2F%2Ffonts.googleapis.com%2Fcss%3Ffamily%3DArchitects%2BDaughter;" vertex="1" parent="IOJUOM2YyDwcFtG7GnWh-62">
          <mxGeometry x="15" y="5" width="210" height="30" as="geometry" />
        </mxCell>
        <mxCell id="IOJUOM2YyDwcFtG7GnWh-63" value="" style="line;strokeWidth=2;direction=south;html=1;hachureGap=4;fontFamily=Architects Daughter;fontSource=https://fonts.googleapis.com/css?family=Architects+Daughter;strokeColor=#000000;" vertex="1" parent="IOJUOM2YyDwcFtG7GnWh-89">
          <mxGeometry x="357" y="210" width="10" height="40" as="geometry" />
        </mxCell>
        <mxCell id="IOJUOM2YyDwcFtG7GnWh-64" value="" style="line;strokeWidth=2;direction=south;html=1;hachureGap=4;fontFamily=Architects Daughter;fontSource=https://fonts.googleapis.com/css?family=Architects+Daughter;strokeColor=#000000;" vertex="1" parent="IOJUOM2YyDwcFtG7GnWh-89">
          <mxGeometry x="417" y="410" width="10" height="50" as="geometry" />
        </mxCell>
        <mxCell id="IOJUOM2YyDwcFtG7GnWh-65" value="" style="line;strokeWidth=2;direction=south;html=1;hachureGap=4;fontFamily=Architects Daughter;fontSource=https://fonts.googleapis.com/css?family=Architects+Daughter;strokeColor=#000000;" vertex="1" parent="IOJUOM2YyDwcFtG7GnWh-89">
          <mxGeometry x="357" y="50" width="10" height="40" as="geometry" />
        </mxCell>
        <mxCell id="IOJUOM2YyDwcFtG7GnWh-66" value="" style="line;strokeWidth=2;direction=south;html=1;hachureGap=4;fontFamily=Architects Daughter;fontSource=https://fonts.googleapis.com/css?family=Architects+Daughter;strokeColor=#000000;" vertex="1" parent="IOJUOM2YyDwcFtG7GnWh-89">
          <mxGeometry x="357" y="130" width="10" height="40" as="geometry" />
        </mxCell>
        <mxCell id="IOJUOM2YyDwcFtG7GnWh-67" value="" style="line;strokeWidth=2;direction=south;html=1;hachureGap=4;fontFamily=Architects Daughter;fontSource=https://fonts.googleapis.com/css?family=Architects+Daughter;strokeColor=#000000;" vertex="1" parent="IOJUOM2YyDwcFtG7GnWh-89">
          <mxGeometry x="295" y="520" width="10" height="90" as="geometry" />
        </mxCell>
        <mxCell id="IOJUOM2YyDwcFtG7GnWh-68" value="" style="line;strokeWidth=2;direction=south;html=1;hachureGap=4;fontFamily=Architects Daughter;fontSource=https://fonts.googleapis.com/css?family=Architects+Daughter;strokeColor=#000000;" vertex="1" parent="IOJUOM2YyDwcFtG7GnWh-89">
          <mxGeometry x="417" y="340" width="10" height="30" as="geometry" />
        </mxCell>
        <mxCell id="IOJUOM2YyDwcFtG7GnWh-69" value="" style="line;strokeWidth=2;direction=south;html=1;hachureGap=4;fontFamily=Architects Daughter;fontSource=https://fonts.googleapis.com/css?family=Architects+Daughter;strokeColor=#000000;" vertex="1" parent="IOJUOM2YyDwcFtG7GnWh-89">
          <mxGeometry x="356" y="810" width="10" height="40" as="geometry" />
        </mxCell>
        <mxCell id="IOJUOM2YyDwcFtG7GnWh-70" value="" style="line;strokeWidth=2;direction=south;html=1;hachureGap=4;fontFamily=Architects Daughter;fontSource=https://fonts.googleapis.com/css?family=Architects+Daughter;strokeColor=#000000;" vertex="1" parent="IOJUOM2YyDwcFtG7GnWh-89">
          <mxGeometry x="543" y="519" width="10" height="191" as="geometry" />
        </mxCell>
        <mxCell id="IOJUOM2YyDwcFtG7GnWh-73" value="" style="line;strokeWidth=2;direction=south;html=1;hachureGap=4;fontFamily=Architects Daughter;fontSource=https://fonts.googleapis.com/css?family=Architects+Daughter;strokeColor=#000000;" vertex="1" parent="IOJUOM2YyDwcFtG7GnWh-89">
          <mxGeometry x="356" y="890" width="10" height="40" as="geometry" />
        </mxCell>
        <mxCell id="IOJUOM2YyDwcFtG7GnWh-75" value="" style="line;strokeWidth=2;direction=south;html=1;hachureGap=4;fontFamily=Architects Daughter;fontSource=https://fonts.googleapis.com/css?family=Architects+Daughter;strokeColor=#000000;" vertex="1" parent="IOJUOM2YyDwcFtG7GnWh-89">
          <mxGeometry x="295" y="670" width="10" height="40" as="geometry" />
        </mxCell>
        <mxCell id="IOJUOM2YyDwcFtG7GnWh-77" value="" style="line;strokeWidth=2;html=1;perimeter=backbonePerimeter;points=[];outlineConnect=0;hachureGap=4;fontFamily=Architects Daughter;fontSource=https://fonts.googleapis.com/css?family=Architects+Daughter;strokeColor=#000000;" vertex="1" parent="IOJUOM2YyDwcFtG7GnWh-89">
          <mxGeometry x="298" y="705" width="249" height="10" as="geometry" />
        </mxCell>
        <mxCell id="IOJUOM2YyDwcFtG7GnWh-79" value="" style="line;strokeWidth=2;html=1;perimeter=backbonePerimeter;points=[];outlineConnect=0;hachureGap=4;fontFamily=Architects Daughter;fontSource=https://fonts.googleapis.com/css?family=Architects+Daughter;strokeColor=#000000;" vertex="1" parent="IOJUOM2YyDwcFtG7GnWh-89">
          <mxGeometry x="297" y="515" width="65" height="10" as="geometry" />
        </mxCell>
        <mxCell id="IOJUOM2YyDwcFtG7GnWh-81" value="" style="line;strokeWidth=2;html=1;perimeter=backbonePerimeter;points=[];outlineConnect=0;hachureGap=4;fontFamily=Architects Daughter;fontSource=https://fonts.googleapis.com/css?family=Architects+Daughter;strokeColor=#000000;" vertex="1" parent="IOJUOM2YyDwcFtG7GnWh-89">
          <mxGeometry x="482" y="515" width="65" height="10" as="geometry" />
        </mxCell>
        <mxCell id="IOJUOM2YyDwcFtG7GnWh-90" value="&lt;b&gt;&lt;font style=&quot;font-size: 13px;&quot; color=&quot;#000000&quot; face=&quot;Comic Sans MS&quot;&gt;V&lt;/font&gt;&lt;/b&gt;" style="text;strokeColor=none;align=center;fillColor=none;html=1;verticalAlign=middle;whiteSpace=wrap;rounded=0;fontFamily=Architects Daughter;fontSource=https%3A%2F%2Ffonts.googleapis.com%2Fcss%3Ffamily%3DArchitects%2BDaughter;" vertex="1" parent="IOJUOM2YyDwcFtG7GnWh-89">
          <mxGeometry x="286" y="498" width="30" height="30" as="geometry" />
        </mxCell>
        <mxCell id="IOJUOM2YyDwcFtG7GnWh-91" value="&lt;b&gt;&lt;font style=&quot;font-size: 13px;&quot; color=&quot;#000000&quot; face=&quot;Comic Sans MS&quot;&gt;F&lt;/font&gt;&lt;/b&gt;" style="text;strokeColor=none;align=center;fillColor=none;html=1;verticalAlign=middle;whiteSpace=wrap;rounded=0;fontFamily=Architects Daughter;fontSource=https://fonts.googleapis.com/css?family=Architects+Daughter;" vertex="1" parent="IOJUOM2YyDwcFtG7GnWh-89">
          <mxGeometry x="528" y="498" width="30" height="30" as="geometry" />
        </mxCell>
      </root>
    </mxGraphModel>
  </diagram>
</mxfile>
